#!OML:ASF I:\Actors\actors\Patient Classification 1\Patient 1\Session 1\Subject1.ASF
:FULLY-SPECIFIED
:DEGREES
661
root 0.044735 17.8343 8.0159 19.9681 7.32636 -21.1952
lowerback 24.3109 0.55984 -2.62544
upperback 3.74196 -1.08312 -10.4048
thorax -9.61185 -0.641176 -9.9956
lowerneck -14.4503 -4.3459 -7.78768
upperneck 5.26565 -6.40113 20.2067
head 4.9821 -2.19054 7.1578
rclavicle 2.54444e-014 -1.08139e-013
rhumerus -86.1214 58.4434 -100.142
rradius 121.273
rwrist -43.764
rhand 57.5659 296.785
rfingers 7.12502
rthumb 73.8984 -39.0755
lclavicle 2.54444e-014 -1.08139e-013
lhumerus 9.92081 -57.5346 14.742
lradius 95.4248
lwrist 68.8562
lhand 11.869 -5.01375
lfingers 7.12502
lthumb 36.8968 21.0773
rfemur -20.7822 12.8812 36.5852
rtibia 6.3816
rfoot -9.75688 -18.5288
rtoes -1.96003
lfemur -201.017 228.82 -155.019
ltibia -4.09664
lfoot 150.335 -120.293
ltoes 15.3118
662
root 0.0490532 17.8219 8.00875 19.534 7.81903 -22.0109
lowerback 24.8177 0.230684 -1.43429
upperback 3.8419 -1.19043 -10.0319
thorax -9.79351 -0.730252 -10.251
lowerneck -14.7012 -4.18909 -8.12629
upperneck 5.53593 -6.14613 20.1886
head 5.07722 -2.04734 7.24262
rclavicle 5.08889e-014 9.54166e-014
rhumerus -84.7434 57.8248 -97.7768
rradius 123.379
rwrist -41.6899
rhand 54.7619 270.14
rfingers 7.12502
rthumb 72.7056 -74.195
lclavicle 5.08889e-014 9.54166e-014
lhumerus 8.50456 -57.3601 15.6547
lradius 95.7621
lwrist 69.4173
lhand 11.6163 -4.99663
lfingers 7.12502
lthumb 36.6577 21.1556
rfemur -20.4128 12.1294 37.8221
rtibia 6.37521
rfoot -9.72834 -18.0133
rtoes -2.34188
lfemur -200.448 227.639 -154.731
ltibia -4.2421
lfoot 153.546 -121.102
ltoes 13.1706
663
root 0.0350444 17.8315 8.02263 19.8778 7.75078 -21.3792
lowerback 24.5635 0.154128 -2.35936
upperback 3.68103 -1.52773 -10.0743
thorax -9.8797 -0.85787 -9.62531
lowerneck -14.4464 -3.84897 -7.99593
upperneck 5.89673 -5.75291 20.1185
head 5.07514 -1.85175 7.24324
rclavicle -1.08139e-013 -1.08139e-013
rhumerus -83.8735 57.7627 -95.6162
rradius 124.686
rwrist -36.5423
rhand 70.842 289.112
rfingers 7.12502
rthumb 73.2905 -0.226374
lclavicle -1.08139e-013 -1.08139e-013
lhumerus 6.25946 -57.4442 16.5861
lradius 96.1201
lwrist 69.7696
lhand 11.4034 -5.33234
lfingers 7.12502
lthumb 36.4561 20.8708
rfemur -20.7322 12.6037 36.9349
rtibia 6.37593
rfoot -9.85147 -18.5362
rtoes -1.73339
lfemur -201.091 228.373 -154.748
ltibia -4.18897
lfoot 151.875 -120.591
ltoes 14.3337
664
root 0.0328113 17.8275 8.02398 19.8562 8.01378 -21.7773
lowerback 24.5939 -0.15288 -1.75122
upperback 3.57468 -1.7741 -10.0085
thorax -10.07 -1.00348 -9.8385
lowerneck -14.0074 -3.51086 -7.49186
upperneck 5.95452 -5.35225 19.6916
head 4.92505 -1.68611 7.04976
rclavicle 0 2.8625e-014
rhumerus -84.1736 58.0428 -94.457
rradius 126.088
rwrist -39.039
rhand 72.5468 286.191
rfingers 7.12502
rthumb 72.4866 1.7392
lclavicle 0 2.8625e-014
lhumerus 4.29053 -57.6113 17.0182
lradius 96.3445
lwrist 69.9028
lhand 11.4687 -6.12421
lfingers 7.12502
lthumb 36.518 20.0633
rfemur -20.7236 12.4308 37.4756
rtibia 6.30448
rfoot -9.8382 -18.4036
rtoes -1.52297
lfemur -201.107 228.2 -154.177
ltibia -4.38898
lfoot 152.524 -120.591
ltoes 13.762
665
root 0.0266858 17.8292 8.03249 19.9227 8.09314 -21.9101
lowerback 24.5067 -0.328865 -1.35926
upperback 3.59464 -1.89685 -10.0445
thorax -10.0343 -1.07741 -10.0732
lowerneck -13.8555 -3.24516 -7.11494
upperneck 5.6833 -4.94569 19.0528
head 4.7241 -1.53095 6.80227
rclavicle -4.45278e-014 2.22639e-014
rhumerus -84.9054 58.3464 -93.6691
rradius 127.544
rwrist -43.4195
rhand 72.8704 282.909
rfingers 7.12502
rthumb 72.32 -0.667925
lclavicle -4.45278e-014 2.22639e-014
lhumerus 3.0412 -57.6931 16.9138
lradius 96.2772
lwrist 70.0256
lhand 11.5468 -6.35149
lfingers 7.12502
lthumb 36.592 19.8174
rfemur -20.736 12.537 37.6254
rtibia 6.21723
rfoot -9.8937 -18.4522
rtoes -1.12607
lfemur -201.24 228.704 -153.691
ltibia -4.55304
lfoot 152.012 -120.072
ltoes 13.711
666
root 0.0114976 17.8421 8.05294 20.1773 7.78855 -21.3884
lowerback 24.2523 -0.270606 -1.89096
upperback 3.6202 -1.95537 -10.2164
thorax -9.8707 -1.0833 -9.92573
lowerneck -13.8448 -2.88877 -6.60548
upperneck 5.19362 -4.35163 17.8699
head 4.43974 -1.31015 6.36664
rclavicle 6.36111e-015 -6.99722e-014
rhumerus -85.5382 58.5081 -92.7775
rradius 128.955
rwrist -47.078
rhand 74.4113 277.858
rfingers 7.12502
rthumb 71.4714 -1.78222
lclavicle 6.36111e-015 -6.99722e-014
lhumerus 1.91909 -57.8712 16.757
lradius 95.9925
lwrist 69.9888
lhand 11.0993 -5.8894
lfingers 7.12502
lthumb 36.1682 20.3856
rfemur -20.8358 13.2031 36.8431
rtibia 6.12318
rfoot -9.98724 -18.9457
rtoes -0.526741
lfemur -201.593 230.091 -153.649
ltibia -4.57392
lfoot 148.705 -119.153
ltoes 15.6668
667
root 0.00100364 17.8526 8.06863 20.2595 7.44416 -21.1076
lowerback 24.2259 -0.238025 -2.15519
upperback 3.61094 -1.99534 -10.343
thorax -9.87106 -1.09589 -9.9051
lowerneck -13.8339 -2.33852 -5.88115
upperneck 4.50312 -3.47581 16.2484
head 4.0569 -0.973206 5.77763
rclavicle 2.22639e-014 4.13472e-014
rhumerus -85.9817 58.6141 -91.9259
rradius 130.095
rwrist -48.4314
rhand 71.0268 452.161
rfingers 7.12502
rthumb 73.2096 -20.9467
lclavicle 2.22639e-014 4.13472e-014
lhumerus 0.500878 -58.2235 16.8587
lradius 95.6248
lwrist 69.8347
lhand 10.0472 -5.62671
lfingers 7.12502
lthumb 35.1711 20.8892
rfemur -20.7564 13.5854 36.4451
rtibia 6.01241
rfoot -9.90418 -19.136
rtoes -0.673553
lfemur -201.478 230.751 -153.91
ltibia -4.58133
lfoot 146.558 -118.839
ltoes 17.0779
